<?xml version="1.0" encoding="UTF-8" standalone="no"?>
<!DOCTYPE svg PUBLIC "-//W3C//DTD SVG 1.1//EN" "http://www.w3.org/Graphics/SVG/1.1/DTD/svg11.dtd">
<!-- Created with Vectornator (http://vectornator.io/) -->
<svg height="100%" stroke-miterlimit="10" style="fill-rule:nonzero;clip-rule:evenodd;stroke-linecap:round;stroke-linejoin:round;" version="1.1" viewBox="0 0 2000 2500" width="100%" xml:space="preserve" xmlns="http://www.w3.org/2000/svg" xmlns:vectornator="http://vectornator.io" xmlns:xlink="http://www.w3.org/1999/xlink">
<defs>
<clipPath id="TextBounds">
<rect height="217.498" width="880.525" x="574.389" y="2150"/>
</clipPath>
<clipPath id="TextBounds_2">
<rect height="366.836" width="20" x="-297.246" y="2155.9"/>
</clipPath>
</defs>
<clipPath id="ArtboardFrame">
<rect height="2500" width="2000" x="0" y="0"/>
</clipPath>
<g clip-path="url(#ArtboardFrame)" id="Untitled" vectornator:layerName="Untitled">
<path d="M1062.04 1892.71C1055.43 1888.94 1049.16 1885.41 1043.27 1881.34C1035.44 1875.93 1027.71 1870.33 1020.35 1864.32C1017.19 1861.73 1016.29 1862.63 1015.01 1865.65C1007.93 1882.42 994.806 1893.11 979.44 1901.98C961.829 1912.14 942.365 1917.15 923.451 1923.78C905.276 1930.15 887.091 1936.57 869.29 1943.89C858.611 1948.28 849.083 1955.12 840.903 1963.42C830.642 1973.84 824.979 1986.74 820.955 2000.64C815.333 2020.07 811.003 2039.92 802.127 2058.34C798.159 2066.57 790.936 2070.87 783.978 2075.73C772.608 2083.68 759.578 2087.16 746.255 2089.65C732.437 2092.25 718.571 2094.64 704.657 2096.64C690.73 2098.64 676.736 2100.24 662.735 2101.65C652.712 2102.65 642.636 2103.44 632.57 2103.64C603.714 2104.18 574.852 2104.45 545.991 2104.66C539.965 2104.7 533.934 2104.06 527.907 2103.7C527.296 2103.66 526.696 2103.41 526.091 2103.27C526.409 2102.58 526.579 2101.76 527.067 2101.23C538.475 2088.84 547.161 2074.71 554.055 2059.4C560.138 2045.89 565.124 2032.07 567.048 2017.28C569.002 2002.27 571.789 1987.32 572.827 1972.25C573.874 1957.06 573.186 1941.74 573.34 1926.48C573.367 1923.82 574.05 1921.16 573.993 1918.51C573.769 1907.98 573.587 1897.44 572.984 1886.93C572.205 1873.33 571.01 1859.76 570.047 1846.17C569.334 1836.12 568.633 1826.06 568.056 1816C567.316 1803.12 566.655 1790.22 566.051 1777.33C565.33 1761.95 565.052 1746.53 563.964 1731.17C561.866 1701.59 563.555 1671.99 563.076 1642.41C562.573 1611.39 562.248 1580.36 562.101 1549.33C562.045 1537.64 562.6 1525.94 563.065 1514.25C563.617 1500.35 564.328 1486.47 565.051 1472.58C565.653 1461.02 566.327 1449.46 567.052 1437.91C567.651 1428.35 568.334 1418.79 569.047 1409.24C570.011 1396.32 570.969 1383.4 572.059 1370.49C572.954 1359.89 573.909 1349.3 575.07 1338.73C576.607 1324.74 578.194 1310.75 580.078 1296.81C583.091 1274.52 578.94 1253.63 567.993 1234.13C557.807 1215.99 547.435 1197.94 536.802 1180.06C525.286 1160.69 515.482 1140.57 510.136 1118.61C506.615 1104.15 503.847 1089.49 501.14 1074.85C500.171 1069.61 500.153 1064.15 500.083 1058.78C499.935 1047.45 500.028 1036.12 500.04 1024.79C500.057 1009.13 501.969 993.688 505.028 978.359C508.071 963.111 510.525 947.724 514.182 932.626C517.862 917.431 522.053 902.29 527.173 887.526C537.978 856.367 549.572 825.482 560.772 794.459C567.264 776.479 573.807 758.513 579.983 740.424C585.722 723.617 591.511 706.798 596.355 689.722C601.79 670.565 606.623 651.209 610.892 631.758C613.973 617.723 615.871 603.416 617.988 589.185C619.89 576.411 621.514 563.591 622.993 550.761C624.211 540.201 625.11 529.602 626.016 519.008C626.789 509.961 627.409 500.9 628.028 491.84C628.737 481.453 629.448 471.065 630.019 460.67C630.763 447.118 631.466 433.562 632.015 420.001C632.773 401.282 634.37 382.524 633.77 363.842C633.106 343.151 627.138 323.657 615.897 305.818C610.749 297.648 607.739 288.156 602.903 279.758C598.351 271.853 595.129 263.623 593.019 254.828C589.003 238.091 590.617 222.924 601.389 208.347C608.707 198.445 618.717 194.625 629.11 192.03C642.654 188.648 656.549 190.567 669.948 194.74C671.11 195.102 672.115 196.244 673.255 196.348C676.586 196.653 680.597 197.863 683.196 196.513C702.564 186.448 721.433 175.413 740.891 165.534C762.526 154.55 785.454 146.487 808.752 139.97C823.258 135.913 838.385 133.634 853.389 131.94C866.126 130.502 879.145 130.139 891.93 130.971C904.345 131.779 916.596 134.896 928.968 136.652C938.176 137.959 947.458 138.761 956.717 139.691C961.233 140.145 965.768 140.594 970.301 140.674C987.534 140.977 1003.03 135.841 1017.27 126.112C1027.57 119.074 1039.28 118.663 1051.29 120.409C1061.5 121.892 1070.64 125.823 1078.22 132.575C1087.21 140.584 1091.68 151.311 1094.04 162.961C1096.8 176.575 1093.21 188.621 1086.22 200.423C1080.87 209.445 1079.97 219.765 1085.13 229.366C1093.8 245.483 1102.94 261.346 1112.08 277.205C1119.23 289.604 1126.68 301.824 1133.96 314.145C1142.59 328.735 1151.12 343.38 1159.79 357.939C1168.32 372.252 1177 386.475 1185.58 400.759C1196.56 419.04 1207.48 437.353 1218.47 455.63C1228.57 472.448 1238.65 489.286 1248.89 506.021C1257.6 520.267 1266.37 534.486 1275.42 548.523C1285.79 564.605 1296.18 580.683 1307.14 596.363C1315.16 607.85 1323.78 618.967 1332.73 629.756C1345.26 644.863 1358.3 659.541 1371.2 674.346C1378.79 683.066 1386.61 691.58 1394.14 700.359C1405.99 714.197 1416.66 728.884 1425.67 744.775C1433.94 759.348 1440.68 774.593 1445.27 790.64C1448.58 802.201 1450.88 814.093 1452.93 825.959C1455.07 838.353 1456.51 850.876 1457.98 863.374C1458.66 869.194 1458.86 875.087 1459 880.953C1459.17 887.896 1459.43 894.873 1458.96 901.788C1457.87 917.918 1456.69 934.056 1454.94 950.123C1453.41 964.178 1451.35 978.195 1448.97 992.134C1444.89 1016.05 1440.35 1039.88 1436.05 1063.76C1433.67 1076.95 1431.33 1090.15 1429.05 1103.36C1426.66 1117.21 1424.27 1131.07 1422.1 1144.96C1421.4 1149.43 1421.19 1154 1421.07 1158.54C1420.65 1175.06 1420.43 1191.59 1420.01 1208.12C1419.85 1214.32 1418.72 1220.56 1419.18 1226.69C1420.02 1238.01 1421.75 1249.26 1423.02 1260.55C1423.78 1267.26 1424.2 1274.02 1425.08 1280.71C1426.2 1289.2 1427.68 1297.63 1428.91 1306.11C1429.71 1311.63 1430.49 1317.17 1431.01 1322.73C1432.11 1334.64 1433.02 1346.57 1434.04 1358.48C1435.02 1369.9 1436.16 1381.31 1437 1392.74C1437.83 1403.95 1438.37 1415.19 1439.04 1426.41C1440.04 1443.16 1441.05 1459.91 1442.03 1476.66C1442.73 1488.55 1443.4 1500.44 1444.03 1512.33C1444.73 1525.39 1445.36 1538.45 1446.04 1551.5C1446.7 1564.22 1447.37 1576.95 1448.04 1589.67C1448.7 1602.23 1449.33 1614.79 1450.05 1627.34C1450.66 1637.9 1451.33 1648.46 1452.05 1659.01C1453.01 1673.26 1453.96 1687.52 1455.06 1701.76C1455.94 1713.02 1456.96 1724.28 1458.06 1735.52C1459.3 1748.31 1460.6 1761.09 1462.07 1773.86C1463.61 1787.35 1465.15 1800.84 1467.09 1814.28C1469.52 1831.04 1471.95 1847.82 1475.15 1864.45C1478.65 1882.55 1483.3 1900.43 1486.97 1918.51C1491.8 1942.32 1497.92 1965.76 1505.63 1988.79C1513.02 2010.89 1520.51 2032.96 1527.87 2055.07C1531.21 2065.1 1528.53 2073.9 1521.68 2081.53C1513.27 2090.88 1502.8 2095.66 1490.07 2095.76C1470.71 2095.91 1451.35 2096.59 1431.99 2096.67C1393.77 2096.82 1355.53 2097.32 1317.33 2096.45C1299.24 2096.03 1282.27 2089.86 1269.34 2076.31C1260.16 2066.7 1255.36 2055.41 1257.88 2041.35C1260.92 2024.38 1258.99 2007.65 1250.9 1992.17C1242.84 1976.74 1231.14 1964.11 1217.27 1953.88C1206.64 1946.04 1195.38 1938.61 1183.44 1933.07C1171.06 1927.32 1157.56 1923.93 1144.48 1919.74C1124.61 1913.37 1104.64 1907.3 1084.78 1900.89C1077.27 1898.47 1069.95 1895.46 1062.04 1892.71M875.038 1003.21C875.371 1003.58 875.909 1003.89 876.008 1004.31C878.048 1012.97 880.673 1021.56 881.84 1030.34C882.806 1037.6 882.301 1045.1 881.969 1052.47C881.581 1061.1 879.179 1069.44 881.837 1078.37C885.845 1091.83 893.525 1103 901.117 1114.41C906.742 1122.87 913.117 1130.6 921.214 1136.65C936.973 1148.42 955.48 1152.11 974.526 1152.52C988.725 1152.83 1002.97 1151.51 1017.18 1150.64C1022.39 1150.33 1027.59 1149.37 1032.75 1148.46C1043.13 1146.64 1053.49 1144.67 1063.85 1142.7C1072.13 1141.13 1080.38 1139.03 1085.91 1132.16C1090.41 1126.56 1094.21 1120.35 1097.98 1114.2C1104.48 1103.59 1111.09 1093.02 1116.89 1082.04C1120.45 1075.29 1120.44 1068.11 1115.38 1061.44C1112.09 1057.09 1109.02 1052.47 1106.55 1047.62C1094.8 1024.53 1090.56 1000.19 1096.11 974.676C1100.09 956.418 1108.15 940.079 1121.55 926.758C1130.22 918.132 1139.22 909.838 1147.95 901.263C1157.67 891.706 1154.38 877.345 1141.2 873.848C1126.41 869.923 1111.44 866.474 1096.37 863.878C1082.2 861.438 1067.82 859.472 1053.47 858.944C1035.98 858.301 1018.43 859.219 1000.91 859.766C988.515 860.153 976.11 860.747 963.757 861.804C953.44 862.688 943.2 864.435 932.912 865.691C926.537 866.47 920.104 866.818 913.757 867.765C903.921 869.232 894.092 870.826 884.345 872.79C877.967 874.075 871.047 874.902 865.582 878.044C852.176 885.749 846.063 898.545 845.119 913.673C844.468 924.092 847.065 934.231 850.794 943.777C858.465 963.416 866.911 982.752 875.038 1003.21M754.538 214.712C745.075 214.758 735.664 215.375 726.714 218.74C711.338 224.521 702.078 233.586 703.172 249.771C703.545 255.3 704.243 261.493 709.953 264.629C714.931 267.362 720.408 269.171 725.474 271.763C732.316 275.263 738.675 279.399 740.527 287.699C742.024 294.408 743.542 301.112 745.035 307.822C746.544 314.604 746.64 321.801 753.702 326.35C755.341 327.406 755.502 332.32 754.73 334.992C754.242 336.68 750.862 338.261 748.602 338.564C742.802 339.341 736.855 339.033 731.06 339.835C727.291 340.357 723.448 341.612 720.087 343.387C717.503 344.752 716.318 347.46 720.608 348.748C725.361 350.175 730.27 352.775 734.944 352.451C748.3 351.527 761.707 350.084 774.843 347.549C795.403 343.582 815.279 336.994 833.8 327.133C838.958 324.387 843.248 319.519 847.059 314.9C849.71 311.687 847.841 308.371 844.33 308.782C842.052 309.049 839.8 309.847 837.628 310.655C826.37 314.842 815.218 319.327 803.883 323.293C789.108 328.463 775.017 329.428 763.065 316.358C753.887 306.322 754.647 288.239 764.797 279.346C771.966 273.065 779.281 266.773 785.433 259.551C794.755 248.607 793.151 232.203 781.584 222.932C774.141 216.965 765.041 214.863 754.538 214.712M658.038 263.212C660.038 258.876 662.072 254.555 664.03 250.199C667.149 243.26 672.385 236.983 671.006 228.616C670.732 226.952 670.048 225.355 669.553 223.727C668.062 224.542 665.978 224.975 665.172 226.23C657.669 237.914 649.693 249.375 643.231 261.627C636.657 274.09 631.43 287.217 629.709 301.586C629.318 304.855 630.631 306.412 631.51 308.684C633.472 307.074 636.188 305.859 637.274 303.789C644.228 290.534 650.824 277.092 658.038 263.212Z" fill="#000000" fill-rule="nonzero" opacity="1" stroke="none"/>
<path d="M1097.4 880.712C1105.7 882.379 1113.62 883.654 1121.27 885.847C1126.55 887.359 1131.42 890.247 1136.56 892.304C1138.84 893.215 1138.7 893.794 1137.19 895.515C1130.87 902.709 1122.55 906.635 1113.61 908.534C1102.3 910.938 1090.75 912.353 1079.24 913.629C1066.87 914.999 1054.45 915.926 1042.02 916.648C1031.02 917.287 1019.99 917.381 1008.97 917.712C997.782 918.047 986.566 919.048 975.417 918.549C960.287 917.872 945.191 916.205 930.112 914.656C919.977 913.616 909.883 912.134 899.797 910.665C896.14 910.133 890.957 909.59 891.002 905.404C891.037 902.153 894.091 897.599 897.079 895.987C903.657 892.436 910.846 889.486 918.137 887.898C933.217 884.614 948.47 881.977 963.759 879.842C975.577 878.192 987.542 877.301 999.471 876.81C1016.8 876.096 1034.19 875.287 1051.5 875.941C1066.67 876.513 1081.77 879.045 1097.4 880.712M932.899 890.712C927.148 891.712 921.261 892.249 915.692 893.873C911.919 894.974 908.503 897.469 905.163 899.694C904.68 900.016 905.501 903.534 905.752 903.538C917.802 903.734 929.883 904.211 941.899 903.542C951.391 903.012 960.783 900.1 970.253 899.914C988.43 899.555 1006.63 900.692 1024.82 900.643C1056.68 900.557 1088.53 900.045 1120.39 899.713C1120.89 899.708 1121.5 899.899 1121.87 899.678C1123.08 898.947 1124.38 898.212 1125.24 897.15C1125.47 896.872 1124.45 894.998 1123.63 894.551C1120.38 892.788 1117.13 890.612 1113.61 889.858C1106.63 888.364 1099.5 887.523 1092.39 886.753C1078.79 885.28 1065.18 883.117 1051.56 882.939C1033.01 882.696 1014.45 884.028 995.899 884.721C988.371 885.002 980.842 885.319 973.32 885.734C968.801 885.984 964.27 886.268 959.789 886.868C951.142 888.025 942.527 889.417 932.899 890.712Z" fill="#000000" fill-rule="nonzero" opacity="1" stroke="none"/>
<g fill="#000000" opacity="1" stroke="#084444" stroke-linecap="round" stroke-linejoin="round" stroke-width="0">
<path clip-path="url(#TextBounds)" d="M605.081 2292.47L605.081 2204.4L595.149 2204.4C593.391 2204.4 592.132 2204.07 591.37 2203.39C590.608 2202.72 590.227 2201.83 590.227 2200.71C590.227 2199.6 590.608 2198.71 591.37 2198.03C592.132 2197.36 593.391 2197.02 595.149 2197.02L641.555 2197.02C650.755 2197.02 658.24 2199.67 664.012 2204.98C669.783 2210.28 672.669 2216.5 672.669 2223.65C672.669 2232.68 667.835 2239.97 658.167 2245.54C665.843 2248.29 671.468 2251.95 675.042 2256.52C678.616 2261.09 680.403 2266.13 680.403 2271.64C680.403 2276.56 679.231 2281.06 676.887 2285.13C674.544 2289.2 670.955 2292.68 666.121 2295.55C661.287 2298.42 656.028 2299.85 650.345 2299.85L595.149 2299.85C593.391 2299.85 592.132 2299.5 591.37 2298.8C590.608 2298.1 590.227 2297.22 590.227 2296.16C590.227 2295.05 590.608 2294.16 591.37 2293.48C592.132 2292.81 593.391 2292.47 595.149 2292.47L605.081 2292.47ZM612.464 2242.72L638.567 2242.72C644.134 2242.72 649.231 2241.7 653.86 2239.65C657.434 2238.01 660.218 2235.63 662.21 2232.53C664.202 2229.42 665.198 2226.26 665.198 2223.04C665.198 2218.41 663.03 2214.15 658.694 2210.25C654.358 2206.35 648.704 2204.4 641.731 2204.4L612.464 2204.4L612.464 2242.72ZM612.464 2292.47L649.817 2292.47C654.563 2292.47 658.694 2291.42 662.21 2289.31C665.725 2287.2 668.391 2284.59 670.208 2281.48C672.024 2278.38 672.932 2275.16 672.932 2271.82C672.932 2268.07 671.629 2264.43 669.021 2260.92C666.414 2257.4 662.796 2254.74 658.167 2252.92C653.538 2251.1 647.151 2250.2 639.007 2250.2L612.464 2250.2L612.464 2292.47Z"/>
<path clip-path="url(#TextBounds)" d="M784.554 2263.55L709.319 2263.55C710.608 2273.11 714.607 2280.8 721.316 2286.63C728.025 2292.46 736.331 2295.37 746.233 2295.37C751.741 2295.37 757.512 2294.46 763.548 2292.65C769.583 2290.83 774.505 2288.43 778.313 2285.44C779.427 2284.56 780.393 2284.12 781.214 2284.12C782.151 2284.12 782.971 2284.49 783.675 2285.22C784.378 2285.95 784.729 2286.82 784.729 2287.81C784.729 2288.81 784.261 2289.78 783.323 2290.71C780.511 2293.64 775.515 2296.38 768.338 2298.93C761.16 2301.48 753.792 2302.75 746.233 2302.75C733.577 2302.75 723.015 2298.61 714.549 2290.32C706.082 2282.03 701.848 2271.99 701.848 2260.21C701.848 2249.49 705.818 2240.29 713.758 2232.62C721.697 2224.94 731.526 2221.1 743.245 2221.1C755.315 2221.1 765.247 2225.04 773.04 2232.92C780.833 2240.81 784.671 2251.02 784.554 2263.55ZM777.083 2256.08C775.618 2247.94 771.765 2241.32 765.525 2236.22C759.285 2231.12 751.858 2228.57 743.245 2228.57C734.632 2228.57 727.22 2231.09 721.009 2236.13C714.798 2241.17 710.93 2247.82 709.407 2256.08L777.083 2256.08Z"/>
<path clip-path="url(#TextBounds)" d="M873.85 2299.85L873.85 2289.22C863.128 2298.24 851.673 2302.75 839.485 2302.75C830.637 2302.75 823.723 2300.51 818.743 2296.03C813.762 2291.55 811.272 2286.05 811.272 2279.55C811.272 2272.4 814.554 2266.16 821.116 2260.83C827.679 2255.5 837.259 2252.83 849.856 2252.83C853.255 2252.83 856.946 2253.05 860.93 2253.49C864.915 2253.93 869.221 2254.62 873.85 2255.56L873.85 2243.6C873.85 2239.56 871.975 2236.04 868.225 2233.06C864.475 2230.07 858.85 2228.57 851.35 2228.57C845.608 2228.57 837.552 2230.24 827.18 2233.58C825.305 2234.17 824.104 2234.46 823.577 2234.46C822.639 2234.46 821.834 2234.11 821.16 2233.41C820.486 2232.71 820.149 2231.83 820.149 2230.77C820.149 2229.78 820.442 2228.98 821.028 2228.4C821.848 2227.52 825.159 2226.32 830.96 2224.79C840.1 2222.33 847.014 2221.1 851.702 2221.1C861.018 2221.1 868.284 2223.4 873.499 2228C878.714 2232.6 881.321 2237.8 881.321 2243.6L881.321 2292.47L891.165 2292.47C892.981 2292.47 894.27 2292.81 895.032 2293.48C895.794 2294.16 896.175 2295.05 896.175 2296.16C896.175 2297.22 895.794 2298.1 895.032 2298.8C894.27 2299.5 892.981 2299.85 891.165 2299.85L873.85 2299.85ZM873.85 2263.12C870.393 2262.12 866.731 2261.39 862.864 2260.92C858.997 2260.45 854.925 2260.21 850.647 2260.21C839.925 2260.21 831.546 2262.53 825.511 2267.16C820.94 2270.62 818.655 2274.75 818.655 2279.55C818.655 2284 820.398 2287.75 823.885 2290.8C827.371 2293.85 832.454 2295.37 839.134 2295.37C845.52 2295.37 851.453 2294.1 856.931 2291.55C862.41 2289 868.05 2284.94 873.85 2279.38L873.85 2263.12Z"/>
<path clip-path="url(#TextBounds)" d="M951.809 2223.74L951.809 2242.37C961.419 2233.7 968.611 2228.12 973.387 2225.63C978.162 2223.14 982.571 2221.89 986.614 2221.89C991.009 2221.89 995.095 2223.37 998.875 2226.33C1002.65 2229.29 1004.54 2231.53 1004.54 2233.06C1004.54 2234.17 1004.18 2235.09 1003.45 2235.83C1002.71 2236.56 1001.79 2236.92 1000.68 2236.92C1000.09 2236.92 999.593 2236.82 999.182 2236.62C998.772 2236.41 998.011 2235.75 996.897 2234.64C994.846 2232.59 993.059 2231.18 991.536 2230.42C990.012 2229.66 988.518 2229.28 987.054 2229.28C983.831 2229.28 979.949 2230.57 975.408 2233.14C970.867 2235.72 963.001 2242.02 951.809 2252.04L951.809 2292.47L984.505 2292.47C986.321 2292.47 987.61 2292.81 988.372 2293.48C989.134 2294.16 989.514 2295.05 989.514 2296.16C989.514 2297.22 989.134 2298.1 988.372 2298.8C987.61 2299.5 986.321 2299.85 984.505 2299.85L926.585 2299.85C924.827 2299.85 923.567 2299.52 922.805 2298.84C922.044 2298.17 921.663 2297.3 921.663 2296.25C921.663 2295.25 922.029 2294.42 922.762 2293.75C923.494 2293.07 924.768 2292.73 926.585 2292.73L944.427 2292.73L944.427 2231.21L930.804 2231.21C929.046 2231.21 927.786 2230.86 927.024 2230.16C926.262 2229.45 925.882 2228.54 925.882 2227.43C925.882 2226.38 926.248 2225.5 926.98 2224.79C927.713 2224.09 928.987 2223.74 930.804 2223.74L951.809 2223.74Z"/>
<path clip-path="url(#TextBounds)" d="M1072.31 2185.86L1072.31 2204.93L1061.41 2204.93L1061.41 2185.86L1072.31 2185.86ZM1072.57 2223.74L1072.57 2292.47L1101.57 2292.47C1103.39 2292.47 1104.68 2292.81 1105.44 2293.48C1106.2 2294.16 1106.58 2295.05 1106.58 2296.16C1106.58 2297.22 1106.2 2298.1 1105.44 2298.8C1104.68 2299.5 1103.39 2299.85 1101.57 2299.85L1036.18 2299.85C1034.43 2299.85 1033.17 2299.5 1032.41 2298.8C1031.64 2298.1 1031.26 2297.22 1031.26 2296.16C1031.26 2295.05 1031.64 2294.16 1032.41 2293.48C1033.17 2292.81 1034.43 2292.47 1036.18 2292.47L1065.19 2292.47L1065.19 2231.21L1043.66 2231.21C1041.9 2231.21 1040.62 2230.86 1039.83 2230.16C1039.04 2229.45 1038.65 2228.57 1038.65 2227.52C1038.65 2226.41 1039.03 2225.5 1039.79 2224.79C1040.55 2224.09 1041.84 2223.74 1043.66 2223.74L1072.57 2223.74Z"/>
<path clip-path="url(#TextBounds)" d="M1201.07 2228.57C1201.07 2226.87 1201.42 2225.64 1202.12 2224.88C1202.82 2224.12 1203.7 2223.74 1204.76 2223.74C1205.87 2223.74 1206.78 2224.12 1207.48 2224.88C1208.19 2225.64 1208.54 2226.93 1208.54 2228.75L1208.54 2241.41C1208.54 2243.16 1208.19 2244.42 1207.48 2245.19C1206.78 2245.95 1205.87 2246.33 1204.76 2246.33C1203.76 2246.33 1202.93 2246.01 1202.25 2245.36C1201.58 2244.72 1201.18 2243.66 1201.07 2242.2C1200.72 2238.68 1198.9 2235.78 1195.62 2233.5C1190.81 2230.21 1184.46 2228.57 1176.55 2228.57C1168.28 2228.57 1161.87 2230.24 1157.3 2233.58C1153.84 2236.1 1152.11 2238.92 1152.11 2242.02C1152.11 2245.54 1154.16 2248.47 1158.26 2250.81C1161.08 2252.45 1166.41 2253.71 1174.26 2254.59C1184.51 2255.7 1191.63 2256.96 1195.62 2258.37C1201.3 2260.42 1205.53 2263.26 1208.32 2266.89C1211.1 2270.53 1212.49 2274.45 1212.49 2278.67C1212.49 2284.94 1209.48 2290.52 1203.44 2295.42C1197.41 2300.31 1188.56 2302.75 1176.9 2302.75C1165.24 2302.75 1155.69 2299.79 1148.24 2293.88C1148.24 2295.87 1148.13 2297.16 1147.89 2297.74C1147.66 2298.33 1147.23 2298.83 1146.62 2299.24C1146 2299.65 1145.32 2299.85 1144.55 2299.85C1143.5 2299.85 1142.62 2299.47 1141.92 2298.71C1141.21 2297.95 1140.86 2296.69 1140.86 2294.93L1140.86 2279.73C1140.86 2277.97 1141.2 2276.71 1141.87 2275.95C1142.55 2275.19 1143.44 2274.8 1144.55 2274.8C1145.61 2274.8 1146.5 2275.17 1147.23 2275.9C1147.97 2276.64 1148.33 2277.62 1148.33 2278.85C1148.33 2281.54 1149.01 2283.8 1150.35 2285.62C1152.41 2288.43 1155.67 2290.76 1160.15 2292.6C1164.64 2294.45 1170.13 2295.37 1176.63 2295.37C1186.24 2295.37 1193.39 2293.58 1198.08 2290.01C1202.77 2286.44 1205.11 2282.66 1205.11 2278.67C1205.11 2274.1 1202.74 2270.44 1197.99 2267.69C1193.19 2264.93 1186.2 2263.09 1177.03 2262.15C1167.86 2261.21 1161.28 2259.98 1157.3 2258.46C1153.31 2256.93 1150.21 2254.65 1147.98 2251.6C1145.75 2248.55 1144.64 2245.27 1144.64 2241.76C1144.64 2235.43 1147.75 2230.41 1153.96 2226.68C1160.17 2222.96 1167.58 2221.1 1176.19 2221.1C1186.39 2221.1 1194.68 2223.59 1201.07 2228.57Z"/>
<path clip-path="url(#TextBounds)" d="M1269.53 2223.74L1309.61 2223.74C1311.37 2223.74 1312.63 2224.09 1313.39 2224.79C1314.15 2225.5 1314.53 2226.41 1314.53 2227.52C1314.53 2228.57 1314.15 2229.45 1313.39 2230.16C1312.63 2230.86 1311.37 2231.21 1309.61 2231.21L1269.53 2231.21L1269.53 2280.34C1269.53 2284.62 1271.25 2288.19 1274.68 2291.06C1278.1 2293.94 1283.13 2295.37 1289.75 2295.37C1294.73 2295.37 1300.12 2294.62 1305.92 2293.13C1311.72 2291.64 1316.23 2289.95 1319.46 2288.08C1320.63 2287.31 1321.59 2286.93 1322.36 2286.93C1323.29 2286.93 1324.11 2287.3 1324.82 2288.03C1325.52 2288.76 1325.87 2289.63 1325.87 2290.62C1325.87 2291.5 1325.49 2292.32 1324.73 2293.09C1322.85 2295.02 1318.3 2297.11 1311.06 2299.37C1303.83 2301.63 1296.9 2302.75 1290.28 2302.75C1281.66 2302.75 1274.81 2300.73 1269.71 2296.69C1264.61 2292.65 1262.06 2287.2 1262.06 2280.34L1262.06 2231.21L1248.44 2231.21C1246.68 2231.21 1245.42 2230.86 1244.66 2230.16C1243.9 2229.45 1243.52 2228.54 1243.52 2227.43C1243.52 2226.38 1243.9 2225.5 1244.66 2224.79C1245.42 2224.09 1246.68 2223.74 1248.44 2223.74L1262.06 2223.74L1262.06 2201.94C1262.06 2200.19 1262.41 2198.93 1263.12 2198.16C1263.82 2197.4 1264.7 2197.02 1265.75 2197.02C1266.87 2197.02 1267.78 2197.4 1268.48 2198.16C1269.18 2198.93 1269.53 2200.19 1269.53 2201.94L1269.53 2223.74Z"/>
<path clip-path="url(#TextBounds)" d="M1413.94 2299.85L1413.94 2289.22C1403.22 2298.24 1391.76 2302.75 1379.57 2302.75C1370.73 2302.75 1363.81 2300.51 1358.83 2296.03C1353.85 2291.55 1351.36 2286.05 1351.36 2279.55C1351.36 2272.4 1354.64 2266.16 1361.2 2260.83C1367.77 2255.5 1377.35 2252.83 1389.94 2252.83C1393.34 2252.83 1397.03 2253.05 1401.02 2253.49C1405 2253.93 1409.31 2254.62 1413.94 2255.56L1413.94 2243.6C1413.94 2239.56 1412.06 2236.04 1408.31 2233.06C1404.56 2230.07 1398.94 2228.57 1391.44 2228.57C1385.7 2228.57 1377.64 2230.24 1367.27 2233.58C1365.39 2234.17 1364.19 2234.46 1363.66 2234.46C1362.73 2234.46 1361.92 2234.11 1361.25 2233.41C1360.57 2232.71 1360.24 2231.83 1360.24 2230.77C1360.24 2229.78 1360.53 2228.98 1361.12 2228.4C1361.94 2227.52 1365.25 2226.32 1371.05 2224.79C1380.19 2222.33 1387.1 2221.1 1391.79 2221.1C1401.11 2221.1 1408.37 2223.4 1413.59 2228C1418.8 2232.6 1421.41 2237.8 1421.41 2243.6L1421.41 2292.47L1431.25 2292.47C1433.07 2292.47 1434.36 2292.81 1435.12 2293.48C1435.88 2294.16 1436.26 2295.05 1436.26 2296.16C1436.26 2297.22 1435.88 2298.1 1435.12 2298.8C1434.36 2299.5 1433.07 2299.85 1431.25 2299.85L1413.94 2299.85ZM1413.94 2263.12C1410.48 2262.12 1406.82 2261.39 1402.95 2260.92C1399.08 2260.45 1395.01 2260.21 1390.74 2260.21C1380.01 2260.21 1371.63 2262.53 1365.6 2267.16C1361.03 2270.62 1358.74 2274.75 1358.74 2279.55C1358.74 2284 1360.49 2287.75 1363.97 2290.8C1367.46 2293.85 1372.54 2295.37 1379.22 2295.37C1385.61 2295.37 1391.54 2294.1 1397.02 2291.55C1402.5 2289 1408.14 2284.94 1413.94 2279.38L1413.94 2263.12Z"/>
</g>
<g fill="#000000" opacity="1" stroke="none">
<path clip-path="url(#TextBounds_2)" d="M-281.391 2160.77L-281.391 2162.82L-287.192 2162.82L-287.192 2177.98L-289.559 2177.98L-289.559 2162.82L-295.36 2162.82L-295.36 2160.77L-281.391 2160.77Z"/>
<path clip-path="url(#TextBounds_2)" d="M-288.973 2192.75C-288.082 2192.75-287.219 2192.96-286.383 2193.38C-285.547 2193.79-284.91 2194.34-284.473 2195C-284.051 2195.63-283.77 2196.37-283.629 2197.21C-283.504 2197.79-283.442 2198.71-283.442 2199.98L-292.641 2199.98C-292.602 2201.25-292.301 2202.27-291.738 2203.04C-291.176 2203.81-290.305 2204.2-289.125 2204.2C-288.024 2204.2-287.145 2203.84-286.488 2203.11C-286.113 2202.69-285.848 2202.2-285.692 2201.64L-283.617 2201.64C-283.672 2202.1-283.854 2202.62-284.162 2203.18C-284.471 2203.75-284.817 2204.21-285.199 2204.57C-285.84 2205.2-286.633 2205.62-287.578 2205.84C-288.086 2205.96-288.66 2206.03-289.301 2206.03C-290.863 2206.03-292.188 2205.46-293.274 2204.32C-294.36 2203.18-294.903 2201.59-294.903 2199.55C-294.903 2197.53-294.356 2195.89-293.262 2194.64C-292.168 2193.38-290.738 2192.75-288.973 2192.75ZM-285.61 2198.3C-285.696 2197.39-285.895 2196.66-286.207 2196.11C-286.785 2195.1-287.75 2194.59-289.102 2194.59C-290.071 2194.59-290.883 2194.94-291.539 2195.64C-292.196 2196.34-292.543 2197.23-292.582 2198.3L-285.61 2198.3Z"/>
<path clip-path="url(#TextBounds_2)" d="M-295.395 2220.63L-292.664 2220.63L-289.781 2225.05L-286.863 2220.63L-284.297 2220.69L-288.528 2226.75L-284.11 2233.18L-286.805 2233.18L-289.922 2228.47L-292.946 2233.18L-295.617 2233.18L-291.199 2226.75L-295.395 2220.63Z"/>
<path clip-path="url(#TextBounds_2)" d="M-293.778 2244.73L-291.645 2244.73L-291.645 2248.23L-289.641 2248.23L-289.641 2249.95L-291.645 2249.95L-291.645 2258.14C-291.645 2258.58-291.496 2258.88-291.199 2259.02C-291.035 2259.11-290.762 2259.15-290.379 2259.15C-290.278 2259.15-290.168 2259.15-290.051 2259.15C-289.934 2259.14-289.797 2259.13-289.641 2259.12L-289.641 2260.78C-289.883 2260.85-290.135 2260.9-290.397 2260.93C-290.658 2260.97-290.942 2260.98-291.246 2260.98C-292.231 2260.98-292.899 2260.73-293.25 2260.22C-293.602 2259.72-293.778 2259.07-293.778 2258.26L-293.778 2249.95L-295.477 2249.95L-295.477 2248.23L-293.778 2248.23L-293.778 2244.73Z"/>
</g>
<path d="M300 26.132L1700 26.132L1700 2401.13L1112.14 2401.13L300 2401.13L300 26.132Z" fill="none" opacity="1" stroke="#000000" stroke-linecap="round" stroke-linejoin="round" stroke-width="9.39507"/>
</g>
</svg>
